<svg xmlns="http://www.w3.org/2000/svg" version="1.1" viewBox="0 0 1000 713" width="1000" height="713"><path fill="#c4f2ff" d="M 783.48 222.64 Q 783.71 222.52 783.85 222.74 Q 789.49 231.93 787.22 242.73 Q 786.49 246.24 782.52 251.29 Q 779.12 255.61 773.80 257.07 A 2.22 2.22 0.0 0 1 771.46 256.29 C 769.91 254.30 769.76 252.63 769.17 249.53 C 767.00 238.15 773.72 227.63 783.48 222.64 Z" data-c-fill="748cab"/><path fill="#c4f2ff" d="M 741.66 259.24 Q 739.59 258.58 741.07 260.17 C 745.01 264.41 749.60 267.96 753.33 272.90 C 757.52 278.46 760.56 281.70 761.52 285.79 A 1.45 1.43 -10.3 0 1 760.30 287.54 C 752.72 288.52 743.60 285.37 737.66 281.54 C 728.23 275.47 721.39 264.03 719.04 253.20 Q 717.43 245.78 717.18 237.58 A 0.99 0.99 0.0 0 1 718.23 236.56 C 731.61 237.53 744.99 241.45 755.25 250.12 Q 760.28 254.38 764.88 261.06 Q 767.41 264.74 769.65 272.03 Q 769.97 273.08 773.51 283.53 C 775.02 287.97 776.94 291.53 778.62 295.62 A 0.95 0.95 0.0 0 0 780.32 295.73 Q 788.87 280.84 793.49 273.52 Q 797.36 267.40 803.88 261.74 C 818.26 249.28 837.85 244.56 856.83 246.25 A 0.75 0.75 0.0 0 1 857.51 247.10 Q 856.65 253.31 855.10 259.67 Q 851.59 274.06 841.53 285.46 Q 832.14 296.10 816.77 300.64 C 811.47 302.20 801.55 302.59 796.53 299.88 A 0.76 0.75 -61.4 0 1 796.23 298.85 C 799.41 293.13 803.28 289.17 808.42 284.18 Q 816.25 276.58 824.66 271.87 Q 828.15 269.92 824.23 270.06 Q 823.05 270.10 821.05 270.98 C 806.17 277.49 794.30 286.24 785.69 299.78 C 783.66 302.97 782.50 307.67 781.15 311.13 Q 780.13 313.75 779.70 319.24 Q 779.66 319.76 780.01 320.15 Q 780.59 320.80 781.57 321.17 A 2.29 2.28 -11.5 0 1 782.39 321.71 Q 783.10 322.46 783.11 324.38 Q 783.27 362.27 783.09 402.92 A 0.67 0.67 0.0 0 1 782.54 403.58 Q 777.91 404.39 773.25 404.01 C 770.50 403.79 769.69 404.00 768.13 401.86 C 765.04 397.61 761.45 394.17 758.63 390.13 C 756.38 386.92 753.21 383.62 750.65 380.25 Q 745.26 373.11 741.80 369.16 Q 738.87 365.80 737.28 363.49 C 735.45 360.82 732.71 358.30 730.93 355.34 Q 729.62 353.17 729.41 352.90 Q 727.97 351.09 727.98 353.58 L 728.13 402.81 Q 728.13 403.88 727.06 403.88 L 711.50 403.88 A 1.40 1.39 -0.0 0 1 710.10 402.49 L 710.10 322.18 A 1.69 1.69 0.0 0 1 711.79 320.49 L 724.32 320.49 A 2.34 2.34 0.0 0 1 726.09 321.30 C 728.98 324.71 731.08 328.25 734.17 331.17 C 735.96 332.87 737.30 335.39 738.86 337.38 Q 750.00 351.55 755.50 358.35 C 758.24 361.74 760.78 365.92 763.91 369.14 Q 765.71 371.01 765.71 368.41 L 765.71 322.91 A 1.87 1.86 -14.3 0 1 766.69 321.27 C 768.17 320.47 769.47 320.04 770.10 317.89 Q 772.97 308.01 773.35 304.01 C 773.73 299.97 771.55 293.94 770.48 290.41 Q 769.59 287.49 768.05 284.65 Q 760.98 271.60 748.40 263.14 C 746.41 261.80 744.33 260.08 741.66 259.24 Z" data-c-fill="748cab"/><path fill="#fafbff" d="M273.29 377.86C272.64 374.97 268.23 372.67 265.78 371.77Q255.58 368.03 249.23 366.46 245.54 365.54 242.23 363.9C238.6 362.1 233.29 359.29 231.37 355.64Q227.91 349.05 228.04 342.78 228.09 340.41 229.62 335C231.46 328.52 237.4 323.55 243.09 321.13Q252.49 317.15 262.43 318.4 275.22 320 286.56 326.72 287.87 327.49 288.54 328.76 288.75 329.15 288.51 329.52L281.1 341.28A1.07 1.07 0 0 1 279.59 341.6Q275.9 339.11 271.61 337.44C264.25 334.57 254.48 330.09 248.13 337.16 245.41 340.19 245.51 344.92 249.2 347.32 254.36 350.67 260.93 352.28 268.24 354.15Q274.03 355.63 280.66 359.59 290.93 365.73 291.28 377.32C291.38 380.33 290.58 386.61 288.38 389.64 287.51 390.83 286.82 392.72 285.54 394.18Q281.68 398.59 275.38 401.04 263.12 405.81 251.4 403.63 240.71 401.65 231.26 396.15 228.83 394.73 224.87 391.33A1.15 1.15 0 0 1 224.72 389.74L233.8 378.31A1 1 0 0 1 235.28 378.22Q240.21 383.07 246.8 385.38 247.44 385.61 251.01 386.94C255.18 388.5 260.07 388.72 264.25 388.29 269.42 387.76 274.53 383.44 273.29 377.86ZM397.0476 360.7247A44.43 43.24-.6 0 1 353.0728 404.4276 44.43 43.24-.6 0 1 308.1924 361.6553 44.43 43.24-.6 0 1 352.1672 317.9524 44.43 43.24-.6 0 1 397.0476 360.7247ZM353.7852 388.3199A27.07 25.96 87.3 0 0 378.4412 360.0571 27.07 25.96 87.3 0 0 351.2348 334.2401 27.07 25.96 87.3 0 0 326.5788 362.5029 27.07 25.96 87.3 0 0 353.7852 388.3199Z" data-c-fill="1b2a51"/><path fill="#c4f2ff" d="M 643.75 319.56 Q 647.03 319.59 651.26 319.95 C 656.89 320.42 661.99 322.61 667.03 325.29 C 677.71 330.96 686.05 343.56 687.35 355.70 C 688.24 364.10 687.47 373.16 683.84 380.84 Q 675.67 398.09 656.15 403.82 Q 651.14 405.30 643.36 405.23 Q 640.08 405.20 635.85 404.85 C 630.22 404.37 625.12 402.18 620.08 399.50 C 609.40 393.83 601.06 381.23 599.76 369.09 C 598.87 360.69 599.64 351.63 603.27 343.95 Q 611.44 326.70 630.96 320.97 Q 635.97 319.50 643.75 319.56 Z M 644.5291 389.3283 A 26.89 25.97 87.7 0 0 669.3991 361.4178 A 26.89 25.97 87.7 0 0 642.3709 335.5917 A 26.89 25.97 87.7 0 0 617.5009 363.5022 A 26.89 25.97 87.7 0 0 644.5291 389.3283 Z" data-c-fill="748cab"/><path fill="#fafbff" d="M437.49 378.11 437.49 401.1Q437.49 402.3 436.29 402.3L420.09 402.3A.97.97 0 0 1 419.12 401.33L419.12 320.73A.99.99 0 0 1 420.11 319.74Q449.36 319.84 455.5 319.86C461.84 319.88 465.47 321.02 472.14 324.09Q476.28 326 478.71 328.76C481.51 331.95 483.6 334.57 484.6 338.39Q486.67 346.25 485.41 354.62C483.31 368.65 469.44 377.07 456.07 377.46Q445.56 377.76 438.02 377.59 437.49 377.58 437.49 378.11ZM437.35 336.87 437.51 361.09A1.01 1.01 0 0 0 438.53 362.09L455.03 361.97A13.17 12.02-.4 0 0 468.12 349.86L468.1 347.66A13.17 12.02-.4 0 0 454.85 335.74L438.35 335.85A1.01 1.01 0 0 0 437.35 336.87ZM526.76 367.72Q525.16 367.39 525.16 369.02L525.16 401.48Q525.16 402.26 524.37 402.26L507.66 402.26A.89.89 0 0 1 506.77 401.37L506.77 320.89A1.1 1.1 0 0 1 507.87 319.79L523.92 319.79A1.26 1.26 0 0 1 525.18 321.05L525.18 351.03A.98.97 90 0 0 526.15 352.01L560.64 352.01A1.03 1.02 90 0 0 561.66 350.98L561.66 320.96A1.17 1.17 0 0 1 562.83 319.79L578.03 319.79Q579.29 319.79 579.29 321.01L579.29 401.44A.8.8 0 0 1 578.49 402.24L562.39 402.24A.83.82 90 0 1 561.57 401.41L561.57 368.52Q561.57 367.63 560.68 367.67 545.79 368.33 528.55 367.85 527.22 367.81 526.76 367.72Z" data-c-fill="1b2a51"/></svg>